<?xml version="1.0" standalone="no"?><!DOCTYPE svg PUBLIC "-//W3C//DTD SVG 1.1//EN" "http://www.w3.org/Graphics/SVG/1.1/DTD/svg11.dtd"><svg t="1733315333375" class="icon" viewBox="0 0 1024 1024" version="1.1" xmlns="http://www.w3.org/2000/svg" p-id="2371" xmlns:xlink="http://www.w3.org/1999/xlink" width="200" height="200"><path d="M671.5 557H348.9c-24.7 0-44.8-20.1-44.8-44.8 0-24.7 20.1-44.8 44.8-44.8h322.6c24.7 0 44.8 20.1 44.8 44.8 0 24.8-20.1 44.8-44.8 44.8z" fill="#333333" p-id="2372"></path><path d="M510.2 960.2c-247 0-448-201-448-448s201-448 448-448 448 201 448 448-201 448-448 448z m0-806.4c-197.6 0-358.4 160.8-358.4 358.4s160.8 358.4 358.4 358.4 358.4-160.8 358.4-358.4-160.8-358.4-358.4-358.4z" fill="#333333" p-id="2373"></path></svg>